<svg id="Layer_1" data-name="Layer 1" xmlns="http://www.w3.org/2000/svg" xmlns:xlink="http://www.w3.org/1999/xlink" viewBox="0 0 1920 540"><defs><style>.cls-1,.cls-2,.cls-3,.cls-4,.cls-5,.cls-6,.cls-7,.cls-8{fill:#f2f2f2;}.cls-1,.cls-2,.cls-3,.cls-4,.cls-5,.cls-8{stroke:#999;}.cls-1,.cls-10,.cls-2,.cls-3,.cls-4,.cls-5,.cls-6,.cls-7,.cls-8,.cls-9{stroke-miterlimit:10;}.cls-1{stroke-width:4.46px;}.cls-1,.cls-2,.cls-3,.cls-4,.cls-5{opacity:0.66;}.cls-2{stroke-width:4.3px;}.cls-3{stroke-width:4.37px;}.cls-4{stroke-width:4.44px;}.cls-5{stroke-width:4.21px;}.cls-6,.cls-7,.cls-9{stroke:gray;}.cls-6,.cls-8,.cls-9{stroke-width:5.55px;}.cls-7{stroke-width:5.47px;}.cls-10,.cls-9{fill:none;}.cls-10{stroke:#1a1a1a;stroke-width:1.68px;}</style></defs><title>Artboard 1</title><image width="6000" height="4000" transform="translate(0 -659) scale(0.32 0.3)" xlink:href="../../../../../../pexels-adrien-olichon-2387532.jpg"/><rect class="cls-1" x="189.14" y="97.73" width="196.51" height="140.81" rx="56.1" transform="translate(119.26 455.53) rotate(-90)"/><image width="512" height="512" transform="translate(229.14 202.11) rotate(-90) scale(0.13)" xlink:href="../../../../../../customer.png"/><path d="M304.14,245.15v-.61h5.59v-7h-5.59v-.61h12.54v.61h-6.42v7h6.42v.61Z"/><path d="M316.75,234.13l-9.53-7.95.34-.41,9.54,7.94Zm-4.59-.16c-3,0-4.79-1.86-4.79-4s1.75-4,4.79-4,4.75,1.86,4.75,4S315.16,234,312.16,234Zm0-7.44c-2.51,0-4.26,1.48-4.26,3.42s1.75,3.42,4.26,3.42,4.22-1.49,4.22-3.42S314.67,226.53,312.16,226.53Z"/><path d="M304.63,223.41a.62.62,0,0,1-.64-.65.61.61,0,0,1,.64-.64.64.64,0,0,1,.65.64A.65.65,0,0,1,304.63,223.41Zm16.27,2.05-.5-.15a3.16,3.16,0,0,0,.19-1c0-1.06-.87-1.25-2-1.25H307.6v-.57h11c1.74,0,2.5.6,2.5,1.86A3.25,3.25,0,0,1,320.9,225.46Z"/><path d="M303,215.05v-.57h10.41v0l-5.77-4.71v-.68l3.57,2.92,5.51-3.46v.65l-5.05,3.15,2.54,2.17h2.51v.57Z"/><path d="M313.45,206.8H307.6v-.57h5.77c2,0,3-.64,3-2.2,0-1.14-.61-2-2-3.12h-6.8v-.57h9.08v.5l-1.56.07v0a4.14,4.14,0,0,1,1.79,3.12C316.91,205.93,315.8,206.8,313.45,206.8Z"/><path d="M307.6,196.7v-.5l1.44-.07v0a4.5,4.5,0,0,1-1.67-3.16c0-1.86,1.1-2.73,3.46-2.73h5.85v.57H310.9c-2,0-3,.64-3,2.2,0,1.14.61,2,1.83,3.16h6.95v.57Z"/><path d="M312.16,187.5c-2.93,0-4.79-1.86-4.79-4.07a4.37,4.37,0,0,1,1.14-2.81l-1.71,0H303v-.57h13.72v.49l-1.22.08v0a4.36,4.36,0,0,1,1.45,3C316.91,186,315.23,187.5,312.16,187.5Zm2.62-6.84h-5.62a4,4,0,0,0-1.26,2.81c0,1.94,1.9,3.42,4.26,3.42s4.22-1.14,4.22-3.19A4.43,4.43,0,0,0,314.78,180.66Z"/><path d="M312.16,177.24c-3,0-4.79-1.9-4.79-3.91s1.48-3.42,4.18-3.42a4.43,4.43,0,0,1,.61,0v6.69c2.43,0,4.22-1.41,4.22-3.57a4.18,4.18,0,0,0-.84-2.51l.49-.26a4.79,4.79,0,0,1,.88,2.81C316.91,175.38,315.12,177.24,312.16,177.24Zm-.53-6.76c-2.51,0-3.73,1.14-3.73,2.85s1.41,3.11,3.73,3.3Z"/><path d="M314.29,163.37h-6.16v1.44h-.46l-.07-1.44-2.66-.08v-.49h2.66v-2.7h.53v2.7h6.23c1.18,0,2-.27,2-1.6a3.39,3.39,0,0,0-.31-1.17l.49-.19a5.32,5.32,0,0,1,.35,1.4C316.91,162.91,315.84,163.37,314.29,163.37Z"/><path d="M304.63,158.16a.61.61,0,0,1-.64-.64.62.62,0,0,1,.64-.65.65.65,0,0,1,.65.65A.64.64,0,0,1,304.63,158.16Zm3-.34v-.57h9.08v.57Z"/><path d="M315.69,153.6H303V153H315.8c.38,0,.58-.15.58-.38a1.41,1.41,0,0,0,0-.34l.49-.11a1.56,1.56,0,0,1,.08.49C316.91,153.26,316.56,153.6,315.69,153.6Z"/><path d="M305.36,149.16c-1.79,0-2.63-.8-2.63-2.09a3.23,3.23,0,0,1,.31-1.26l.49.19a2.46,2.46,0,0,0-.26,1.11c0,1,.79,1.48,2.16,1.48h11.25v.57Zm2.31,1.25-.07-1.25v-2.74h.53v4Z"/><path d="M307.6,144.45V144l1.71-.07v0a3.17,3.17,0,0,1-1.94-2.59,1.83,1.83,0,0,1,.19-.87l.53.15a2,2,0,0,0-.15.8c0,.84.65,1.82,2.43,2.55h6.31v.57Z"/><path d="M312.16,139.62c-3,0-4.79-1.9-4.79-3.91s1.48-3.42,4.18-3.42a3.34,3.34,0,0,1,.61,0V139c2.43,0,4.22-1.4,4.22-3.57a4.18,4.18,0,0,0-.84-2.51l.49-.26a4.79,4.79,0,0,1,.88,2.81C316.91,137.76,315.12,139.62,312.16,139.62Zm-.53-6.76c-2.51,0-3.73,1.14-3.73,2.85s1.41,3.11,3.73,3.3Z"/><path d="M312.16,130.54c-2.93,0-4.79-1.86-4.79-4.07a4.37,4.37,0,0,1,1.14-2.81l-1.71,0H303v-.57h13.72v.49l-1.22.08v0a4.36,4.36,0,0,1,1.45,3C316.91,129.06,315.23,130.54,312.16,130.54Zm2.62-6.84h-5.62a4,4,0,0,0-1.26,2.81c0,1.94,1.9,3.42,4.26,3.42s4.22-1.14,4.22-3.19A4.39,4.39,0,0,0,314.78,123.7Z"/><path d="M315.65,120.66l-.45-.38a4.28,4.28,0,0,0,1.18-3,2,2,0,0,0-1.94-2.31c-1.22,0-1.75,1.21-2.13,2.28-.49,1.4-1,3-2.58,3-1.26,0-2.36-1-2.36-2.85a4.16,4.16,0,0,1,.91-2.51l.46.34a3.48,3.48,0,0,0-.84,2.21c0,1.52.89,2.2,1.79,2.2,1.1,0,1.52-1.1,1.94-2.2.55-1.45,1-3,2.77-3,1.33,0,2.51,1.06,2.51,3A5.07,5.07,0,0,1,315.65,120.66Z"/><path d="M303,111.88v-.57h6.12a4.56,4.56,0,0,1-1.71-3.19c0-1.86,1.1-2.74,3.46-2.74h5.85V106H310.9c-2,0-3,.65-3,2.21,0,1.14.61,2,1.83,3.15h6.95v.57Z"/><path d="M312.16,102.76c-3,0-4.79-1.9-4.79-3.91s1.48-3.42,4.18-3.42a3.34,3.34,0,0,1,.61,0v6.68c2.43,0,4.22-1.4,4.22-3.57a4.18,4.18,0,0,0-.84-2.51l.49-.26a4.79,4.79,0,0,1,.88,2.81C316.91,100.9,315.12,102.76,312.16,102.76ZM311.63,96c-2.51,0-3.73,1.14-3.73,2.85s1.41,3.11,3.73,3.3Z"/><path d="M312.16,93.68c-2.93,0-4.79-1.86-4.79-4.07a4.37,4.37,0,0,1,1.14-2.81l-1.71,0H303v-.57h13.72v.49l-1.22.08v0a4.36,4.36,0,0,1,1.45,3C316.91,92.2,315.23,93.68,312.16,93.68Zm2.62-6.84h-5.62a4,4,0,0,0-1.26,2.81c0,1.94,1.9,3.42,4.26,3.42s4.22-1.14,4.22-3.19A4.43,4.43,0,0,0,314.78,86.84Z"/><rect class="cls-2" x="521.85" y="319.42" width="189.43" height="135.73" rx="56.1" transform="translate(229.28 1003.85) rotate(-90)"/><rect class="cls-3" x="850.13" y="85.26" width="192.35" height="137.83" rx="56.1" transform="translate(792.12 1100.47) rotate(-90)"/><rect class="cls-4" x="1179.15" y="309.57" width="195.53" height="140.11" rx="56.1" transform="translate(900.36 1657.45) rotate(-90.14)"/><rect class="cls-5" x="1536.11" y="85.84" width="185.56" height="132.96" rx="56.1" transform="translate(1494.33 1782.78) rotate(-90.62)"/><line class="cls-6" x1="450.01" y1="132.02" x2="782.62" y2="132.02"/><line class="cls-7" x1="616.32" y1="204.2" x2="616.32" y2="128.64"/><line class="cls-8" x1="1118.43" y1="125.16" x2="1451.04" y2="125.16"/><line class="cls-6" x1="1284.73" y1="224.76" x2="1284.46" y2="125.16"/><line class="cls-6" x1="774.4" y1="386.04" x2="1107.01" y2="386.04"/><line class="cls-6" x1="940.73" y1="311.53" x2="940.73" y2="387.1"/><polyline class="cls-9" points="278.22 341.27 278.22 399.75 400.67 399.75"/><polyline class="cls-9" points="1636.99 327.56 1636.99 386.04 1514.55 386.04"/><image width="512" height="512" transform="translate(558.31 423.19) rotate(-90) scale(0.14)" xlink:href="../../../../../../practice.png"/><path d="M644.85,461.17v-1l7.6-2.7,2.85-1v-.07c-.95-.35-1.9-.65-2.85-1l-7.6-2.7v-1h12.54v.61h-8.74c-1,0-2.24,0-3.27-.07v.07l2.78,1,7.82,2.83v.65l-7.82,2.85-2.78,1v.08c1,0,2.28-.08,3.27-.08h8.74v.57Z"/><path d="M655.17,448.67c-2,0-3-1.86-3.44-6-1.48,0-3.12.34-3.12,2.24a4.93,4.93,0,0,0,1.11,3l-.46.31a5.87,5.87,0,0,1-1.18-3.31c0-2.13,1.6-2.77,3.42-2.77h5.89v.49l-1.22.08v0a5.56,5.56,0,0,1,1.45,3.31A2.34,2.34,0,0,1,655.17,448.67Zm.36-6h-3.31c.46,4,1.37,5.35,2.93,5.35a1.83,1.83,0,0,0,1.94-2.05A5.18,5.18,0,0,0,655.53,442.71Z"/><path d="M648.31,438.75v-.49l1.44-.08v0a4.5,4.5,0,0,1-1.67-3.16c0-1.86,1.1-2.73,3.46-2.73h5.85v.57h-5.77c-2,0-3,.64-3,2.2,0,1.14.61,2,1.83,3.15h6.95v.57Z"/><path d="M659.29,429.56a3,3,0,0,1-2.24-1.37H657a1.6,1.6,0,0,1-1.44.8,2.11,2.11,0,0,1-1.67-1h-.08a3.39,3.39,0,0,1-2.51,1.14,3.12,3.12,0,0,1-3-4.29v-3h.53V424a3.16,3.16,0,0,1,2.43-1.1A3.13,3.13,0,0,1,654.5,426a3,3,0,0,1-.42,1.56,1.82,1.82,0,0,0,1.41.8c.68,0,1.25-.38,1.25-1.79v-2c0-2,.65-2.92,2.06-2.92s3,1.63,3,4.17C661.84,428.15,660.81,429.56,659.29,429.56Zm-8-6a2.51,2.51,0,1,0,0,5,2.51,2.51,0,1,0,0-5Zm7.56-1.26c-1.06,0-1.48.76-1.48,2.21v2.09a6.77,6.77,0,0,1-.15,1.1,2.54,2.54,0,0,0,2,1.29c1.22,0,2-1.14,2-3.15C661.3,423.63,660.05,422.26,658.83,422.26Z"/><path d="M652.87,420.63c-3,0-4.79-1.9-4.79-3.92s1.48-3.42,4.18-3.42a3.34,3.34,0,0,1,.61,0V420c2.43,0,4.22-1.41,4.22-3.57a4.15,4.15,0,0,0-.84-2.51l.49-.27a4.85,4.85,0,0,1,.88,2.82C657.62,418.77,655.83,420.63,652.87,420.63Zm-.53-6.77c-2.51,0-3.73,1.14-3.73,2.85s1.41,3.12,3.73,3.31Z"/><path d="M645.23,405.73A1.75,1.75,0,1,1,647,404,1.7,1.7,0,0,1,645.23,405.73Zm0-3A1.3,1.3,0,1,0,646.6,404,1.28,1.28,0,0,0,645.23,402.69Zm9.94,4.94c-2,0-3-1.86-3.44-6-1.48,0-3.12.34-3.12,2.24a4.93,4.93,0,0,0,1.11,3l-.46.31a5.87,5.87,0,0,1-1.18-3.31c0-2.13,1.6-2.77,3.42-2.77h5.89v.49l-1.22.08v0a5.56,5.56,0,0,1,1.45,3.31A2.34,2.34,0,0,1,655.17,407.63Zm.36-6h-3.31c.46,4,1.37,5.35,2.93,5.35a1.83,1.83,0,0,0,1.94-2A5.18,5.18,0,0,0,655.53,401.67Z"/><path d="M648.31,397.71v-.49l1.71-.08v0a3.17,3.17,0,0,1-1.94-2.59,1.83,1.83,0,0,1,.19-.87l.53.15a1.93,1.93,0,0,0-.15.8c0,.83.65,1.82,2.43,2.54h6.31v.57Z"/><path d="M645.35,388.44a.65.65,0,1,1,0-1.29.65.65,0,0,1,0,1.29Zm3-.34v-.57h9.08v.57Z"/><path d="M656.48,379.47v0l.91.08v.49H643.67v-.57h4.07l1.82,0a5.42,5.42,0,0,1-1.48-3.23c0-2.47,1.83-3.65,4.64-3.65,3.07,0,4.9,1.87,4.9,4A4.83,4.83,0,0,1,656.48,379.47Zm-3.76-6.19c-2.32,0-4.11.84-4.11,3.08a5.07,5.07,0,0,0,1.6,3.15h5.62a4.67,4.67,0,0,0,1.26-2.85C657.09,374.69,655.26,373.28,652.72,373.28Z"/><path d="M648.31,369.86v-.49l1.71-.08v0a3.17,3.17,0,0,1-1.94-2.58,1.83,1.83,0,0,1,.19-.87l.53.15a1.9,1.9,0,0,0-.15.8c0,.83.65,1.82,2.43,2.54h6.31v.57Z"/><path d="M655.17,365.11c-2,0-3-1.86-3.44-6-1.48,0-3.12.34-3.12,2.24a4.93,4.93,0,0,0,1.11,3l-.46.3a5.83,5.83,0,0,1-1.18-3.3c0-2.13,1.6-2.77,3.42-2.77h5.89v.49l-1.22.08v0a5.56,5.56,0,0,1,1.45,3.31A2.35,2.35,0,0,1,655.17,365.11Zm.36-6h-3.31c.46,4,1.37,5.35,2.93,5.35a1.83,1.83,0,0,0,1.94-2.05A5.18,5.18,0,0,0,655.53,359.15Z"/><path d="M648.31,355.19v-.49l1.44-.08v0a4.48,4.48,0,0,1-1.67-3.15c0-1.86,1.1-2.73,3.46-2.73h5.85v.57h-5.77c-2,0-3,.64-3,2.2,0,1.14.61,2,1.83,3.15h6.95v.57Z"/><path d="M652.87,346c-3,0-4.79-1.9-4.79-4.07a3.71,3.71,0,0,1,1.14-2.66l.42.38a3.29,3.29,0,0,0-1,2.28c0,1.94,1.75,3.46,4.26,3.46s4.22-1.37,4.22-3.46a3.73,3.73,0,0,0-1.11-2.54l.42-.35a4.25,4.25,0,0,1,1.22,2.89C657.62,344.25,655.87,346,652.87,346Z"/><path d="M643.67,336.72v-.56h6.12a4.56,4.56,0,0,1-1.71-3.2c0-1.86,1.1-2.73,3.46-2.73h5.85v.57h-5.77c-2,0-3,.64-3,2.2,0,1.14.61,2,1.83,3.16h6.95v.56Z"/><path d="M652.87,327.61c-3,0-4.79-1.9-4.79-3.92s1.48-3.42,4.18-3.42a3.34,3.34,0,0,1,.61,0V327c2.43,0,4.22-1.41,4.22-3.57a4.15,4.15,0,0,0-.84-2.51l.49-.27a4.84,4.84,0,0,1,.88,2.81C657.62,325.74,655.83,327.61,652.87,327.61Zm-.53-6.77c-2.51,0-3.73,1.14-3.73,2.85s1.41,3.12,3.73,3.31Z"/><path d="M648.31,317.72v-.49l1.44-.07v0a4.5,4.5,0,0,1-1.67-3.16c0-1.86,1.1-2.73,3.46-2.73h5.85v.57h-5.77c-2,0-3,.64-3,2.2,0,1.14.61,2,1.83,3.16h6.95v.56Z"/><image width="512" height="512" transform="translate(889 187.16) rotate(-90) scale(0.13)" xlink:href="../../../../../../certificate.png"/><path d="M965.2,164.49V164l12.53-4.48v.64l-7.52,2.63c-1.52.53-2.81,1-4.37,1.44v.08c1.56.45,2.85.91,4.37,1.44l7.52,2.66V169Zm7.52,2.55v-5.57h.53V167Z"/><path d="M965.2,159.36v-.64l7.52-2.43c1.56-.5,2.7-.84,4.24-1.37v-.08c-1.54-.53-2.68-.87-4.24-1.37L965.2,151v-.61l12.53,4.15v.6Z"/><path d="M971.43,149.45c-3.95,0-6.46-2.09-6.46-5.29a4.2,4.2,0,0,1,1.48-3.19l.42.38a3.64,3.64,0,0,0-1.33,2.81c0,2.89,2.28,4.64,5.89,4.64s6-1.75,6-4.56A4.14,4.14,0,0,0,975.8,141l.38-.38a4.57,4.57,0,0,1,1.78,3.69C978,147.36,975.38,149.45,971.43,149.45Z"/><path d="M996,193.24c-3,0-4.78-1.9-4.78-4.06a3.68,3.68,0,0,1,1.14-2.66l.41.38a3.26,3.26,0,0,0-1,2.28c0,1.93,1.75,3.45,4.25,3.45s4.22-1.37,4.22-3.45a3.75,3.75,0,0,0-1.1-2.55l.42-.34a4.29,4.29,0,0,1,1.21,2.89C1000.76,191.49,999,193.24,996,193.24Z"/><path d="M996,185.07c-3,0-4.78-1.9-4.78-3.91s1.48-3.42,4.18-3.42a3.18,3.18,0,0,1,.6,0v6.68c2.44,0,4.22-1.4,4.22-3.57a4.14,4.14,0,0,0-.84-2.51l.5-.26a4.79,4.79,0,0,1,.87,2.81C1000.76,183.21,999,185.07,996,185.07Zm-.53-6.76c-2.51,0-3.72,1.14-3.72,2.85s1.4,3.11,3.72,3.3Z"/><path d="M991.45,175.19v-.49l1.71-.08v0a3.16,3.16,0,0,1-1.93-2.58,1.72,1.72,0,0,1,.19-.87l.53.15a1.76,1.76,0,0,0-.15.8c0,.83.64,1.82,2.43,2.54h6.31v.57Z"/><path d="M998.14,169.19H992v1.44h-.46l-.08-1.44-2.66-.08v-.49h2.66v-2.7H992v2.7h6.23c1.17,0,2-.27,2-1.6a3.42,3.42,0,0,0-.3-1.18l.49-.19a5.2,5.2,0,0,1,.34,1.41C1000.76,168.73,999.7,169.19,998.14,169.19Z"/><path d="M988.49,164a.65.65,0,1,1,0-1.29.65.65,0,1,1,0,1.29Zm3-.34v-.57h9.09v.57Z"/><path d="M989.21,159.35c-1.78,0-2.62-.8-2.62-2.09a3.4,3.4,0,0,1,.3-1.26l.5.19a2.47,2.47,0,0,0-.27,1.1c0,1,.8,1.49,2.17,1.49h11.25v.57Zm2.32,1.25-.08-1.25v-2.74H992v4Z"/><path d="M988.49,155a.65.65,0,1,1,0-1.3.65.65,0,0,1,0,1.3Zm3-.35v-.57h9.09v.57Z"/><path d="M996,151.21c-3,0-4.78-1.9-4.78-4.06a3.69,3.69,0,0,1,1.14-2.66l.41.38a3.28,3.28,0,0,0-1,2.28c0,1.94,1.75,3.46,4.25,3.46s4.22-1.37,4.22-3.46a3.75,3.75,0,0,0-1.1-2.55l.42-.34a4.29,4.29,0,0,1,1.21,2.89C1000.76,149.47,999,151.21,996,151.21Z"/><path d="M996,143c-3,0-4.78-1.9-4.78-3.91s1.48-3.42,4.18-3.42a3.18,3.18,0,0,1,.6,0v6.69c2.44,0,4.22-1.41,4.22-3.58a4.08,4.08,0,0,0-.84-2.5l.5-.27a4.79,4.79,0,0,1,.87,2.81C1000.76,141.18,999,143,996,143Zm-.53-6.76c-2.51,0-3.72,1.14-3.72,2.85s1.4,3.12,3.72,3.31Z"/><path d="M991.45,133.16v-.49l1.71-.08v0a3.17,3.17,0,0,1-1.93-2.59,1.72,1.72,0,0,1,.19-.87l.53.15a1.79,1.79,0,0,0-.15.8c0,.83.64,1.82,2.43,2.54h6.31v.57Z"/><path d="M996,128.34c-3,0-4.78-1.9-4.78-3.92s1.48-3.42,4.18-3.42a3.18,3.18,0,0,1,.6,0v6.69c2.44,0,4.22-1.41,4.22-3.57a4.09,4.09,0,0,0-.84-2.51l.5-.27a4.85,4.85,0,0,1,.87,2.82C1000.76,126.48,999,128.34,996,128.34Zm-.53-6.77c-2.51,0-3.72,1.14-3.72,2.85s1.4,3.12,3.72,3.31Z"/><path d="M998.14,118.46H992v1.44h-.46l-.08-1.44-2.66-.08v-.49h2.66v-2.7H992v2.7h6.23c1.17,0,2-.27,2-1.6a3.48,3.48,0,0,0-.3-1.18l.49-.19a5.37,5.37,0,0,1,.34,1.41C1000.76,118,999.7,118.46,998.14,118.46Z"/><path d="M1290.58,408.77v-.61l7.22,0v0l-7.24-6.36V401l4.61,4,7.93-4.57v.72l-7.47,4.31,3,2.69h4.45v.61Z"/><path d="M1294,398.38v-.49l1.71-.08v0a3.16,3.16,0,0,1-1.94-2.58,1.83,1.83,0,0,1,.19-.87l.53.15a1.79,1.79,0,0,0-.15.8c0,.83.65,1.82,2.44,2.54l6.3,0v.57Z"/><path d="M1298.56,393.55c-3,0-4.79-1.89-4.79-3.91s1.47-3.42,4.17-3.43a3.18,3.18,0,0,1,.6,0l0,6.69c2.43,0,4.21-1.42,4.21-3.58a4.15,4.15,0,0,0-.84-2.51l.49-.27a4.84,4.84,0,0,1,.88,2.81C1303.31,391.67,1301.53,393.54,1298.56,393.55Zm-.55-6.77c-2.5,0-3.72,1.15-3.71,2.86s1.41,3.11,3.73,3.3Z"/><path d="M1300.84,384.65c-2,0-3-1.86-3.45-6-1.48,0-3.12.35-3.11,2.25a4.93,4.93,0,0,0,1.11,3l-.46.31a5.91,5.91,0,0,1-1.19-3.31c0-2.12,1.59-2.77,3.42-2.78h5.89v.49l-1.22.08v0a5.56,5.56,0,0,1,1.45,3.3A2.34,2.34,0,0,1,1300.84,384.65Zm.35-6h-3.31c.47,4,1.38,5.35,2.94,5.35a1.82,1.82,0,0,0,1.93-2.06A5.2,5.2,0,0,0,1301.19,378.68Z"/><path d="M1300.64,374.73l-6.15,0v1.44H1294l-.08-1.44-2.66-.07v-.5H1294v-2.7h.53v2.7l6.23,0c1.18,0,2-.27,2-1.6a3.29,3.29,0,0,0-.31-1.18l.5-.19a5.2,5.2,0,0,1,.34,1.41C1303.26,374.27,1302.2,374.73,1300.64,374.73Z"/><path d="M1291,369.55a.65.65,0,1,1,0-1.29.64.64,0,0,1,.65.64A.65.65,0,0,1,1291,369.55Zm3-.35v-.57l9.08,0v.57Z"/><path d="M1293.94,366.58v-.65l5.88-2.18c.87-.3,1.78-.65,2.58-.95v-.08c-.8-.3-1.71-.64-2.58-.94l-5.9-2.15V359l9.09,3.4v.68Z"/><path d="M1298.48,357.75c-3,0-4.8-1.89-4.8-3.9s1.47-3.42,4.17-3.43a3.34,3.34,0,0,1,.61,0v6.68c2.44,0,4.22-1.41,4.21-3.58a4.08,4.08,0,0,0-.84-2.5l.49-.27a4.79,4.79,0,0,1,.88,2.81C1303.22,355.88,1301.44,357.75,1298.48,357.75Zm-.55-6.76c-2.51,0-3.72,1.15-3.72,2.86s1.41,3.11,3.73,3.3Z"/><path d="M1312.32,457.24v-.57h6.12a4.58,4.58,0,0,1-1.72-3.19c0-1.86,1.09-2.74,3.45-2.75H1326v.57h-5.77c-2,0-3,.66-3,2.21,0,1.14.61,2,1.83,3.15h7v.57Z"/><path d="M1313.85,446.1a1.75,1.75,0,1,1,1.78-1.75A1.71,1.71,0,0,1,1313.85,446.1Zm0-3a1.3,1.3,0,1,0,1.37,1.29A1.28,1.28,0,0,0,1313.84,443.06Zm10,4.92c-2,0-3-1.86-3.45-6-1.48,0-3.12.35-3.11,2.25a4.93,4.93,0,0,0,1.11,3l-.46.31a5.87,5.87,0,0,1-1.18-3.31c0-2.12,1.59-2.77,3.41-2.78H1326v.49l-1.22.08v0a5.55,5.55,0,0,1,1.46,3.3A2.35,2.35,0,0,1,1323.79,448Zm.35-6h-3.31c.47,4,1.38,5.35,2.94,5.35a1.81,1.81,0,0,0,1.93-2.06A5.15,5.15,0,0,0,1324.14,442Z"/><path d="M1316.91,438.08v-.5l1.44-.08v0a4.55,4.55,0,0,1-1.68-3.15c0-1.87,1.1-2.74,3.45-2.75H1326v.57h-5.78c-2,0-3,.66-3,2.21,0,1.14.61,2,1.83,3.15h7v.57Z"/><path d="M1321.45,428.87c-2.93,0-4.79-1.85-4.8-4.05a4.36,4.36,0,0,1,1.13-2.82l-1.71,0h-3.83v-.57l13.72,0v.5l-1.21.07v0a4.4,4.4,0,0,1,1.45,3C1326.19,427.38,1324.52,428.86,1321.45,428.87Zm2.6-6.85-5.62,0a4.05,4.05,0,0,0-1.25,2.81c0,1.94,1.91,3.42,4.27,3.41s4.21-1.15,4.21-3.2A4.44,4.44,0,0,0,1324.05,422Z"/><path d="M1316.86,419.42v-.65l5.89-2.18c.87-.3,1.78-.65,2.58-.95v-.08c-.8-.3-1.71-.64-2.59-.94l-5.89-2.15v-.61l9.09,3.4v.68Z"/><path d="M1323.72,410.7c-2,0-3-1.89-3.47-5.84-1.48,0-3.12.35-3.11,2.25a4.84,4.84,0,0,0,1.11,2.84l-.46.31a5.77,5.77,0,0,1-1.18-3.19,2.57,2.57,0,0,1,2.38-2.66,3.71,3.71,0,0,1-2.4-3.23c0-2.09,1.48-3.35,4.17-3.35a3.34,3.34,0,0,1,.61,0l0,6.42c2.43,0,4.21-1.46,4.21-3.4a4,4,0,0,0-.84-2.43l.49-.26a4.52,4.52,0,0,1,.88,2.73,3.83,3.83,0,0,1-1.93,3.27,6.23,6.23,0,0,1,2,3.87A2.35,2.35,0,0,1,1323.72,410.7Zm-2.84-12.3c-2.51,0-3.76,1.07-3.75,2.78s1.56,2.92,3.76,3.11Zm2.83,6a6.47,6.47,0,0,1-2.44.43h-.53c.47,3.8,1.38,5.24,2.94,5.23a1.81,1.81,0,0,0,1.93-2A5.47,5.47,0,0,0,1323.71,404.43Z"/><path d="M1316.81,395.29v-.49l1.7-.08v0a3.17,3.17,0,0,1-1.94-2.58,1.81,1.81,0,0,1,.19-.87l.53.15a1.89,1.89,0,0,0-.15.79c0,.84.65,1.83,2.44,2.54h6.31v.57Z"/><path d="M1312.16,389.49v-.57l10.41,0v0l-5.79-4.69v-.69l3.58,2.92,5.5-3.47v.65l-5,3.16,2.55,2.16h2.51v.57Z"/><path d="M1324.83,382.05l-.46-.38a4.19,4.19,0,0,0,1.17-3c0-1.52-.91-2.31-1.94-2.31-1.22,0-1.74,1.22-2.12,2.28-.49,1.41-1,3-2.58,3-1.25,0-2.36-1-2.36-2.84a4.16,4.16,0,0,1,.91-2.51l.45.34a3.53,3.53,0,0,0-.83,2.21c0,1.52.9,2.2,1.79,2.2,1.1,0,1.52-1.11,1.93-2.21.55-1.45,1-3,2.77-3.05,1.33,0,2.51,1.06,2.52,3A5.12,5.12,0,0,1,1324.83,382.05Z"/><path d="M1324.84,369.47l-12.73,0v-.57l12.84,0c.38,0,.57-.15.57-.38a1.37,1.37,0,0,0,0-.34l.49-.12a1.61,1.61,0,0,1,.08.49C1326.05,369.12,1325.71,369.47,1324.84,369.47Z"/><path d="M1325.89,366.05l-9.55-7.92.34-.42,9.55,7.92Zm-4.59-.14c-3,0-4.8-1.86-4.8-4s1.74-4,4.78-4,4.75,1.85,4.76,4S1324.3,365.9,1321.3,365.91Zm0-7.45c-2.51,0-4.25,1.49-4.25,3.43s1.76,3.41,4.26,3.41,4.22-1.49,4.21-3.43S1323.79,358.45,1321.28,358.46Z"/><path d="M1324.77,356.17l-.46-.38a4.19,4.19,0,0,0,1.17-3,2,2,0,0,0-1.94-2.31c-1.22,0-1.75,1.22-2.12,2.28-.49,1.41-1,3-2.58,3-1.25,0-2.36-1-2.36-2.85a4.09,4.09,0,0,1,.9-2.51l.46.34A3.53,3.53,0,0,0,1317,353c0,1.52.9,2.2,1.79,2.2,1.1,0,1.52-1.11,1.93-2.21.55-1.45,1-3,2.77-3.05,1.33,0,2.51,1.06,2.51,3A5.06,5.06,0,0,1,1324.77,356.17Z"/><path d="M1316.69,347.41v-.49l1.44-.08v0a4.5,4.5,0,0,1-1.67-3.15c0-1.86,1.09-2.74,3.45-2.74l5.85,0v.57l-5.78,0c-2,0-3,.65-3,2.21,0,1.14.61,2,1.83,3.15l7,0v.57Z"/><path d="M1313.71,337.77a.62.62,0,0,1-.65-.65.62.62,0,0,1,.64-.65.65.65,0,0,1,0,1.3Zm3-.35v-.57l9.08,0v.57Z"/><path d="M1316.66,333.2v-.49l1.44-.08v0a4.52,4.52,0,0,1-1.68-3.15c0-1.86,1.1-2.74,3.45-2.75h5.85v.57H1320c-2,0-3,.66-3,2.21,0,1.14.62,2,1.83,3.15h7v.57Z"/><path d="M1327.62,324a3,3,0,0,1-2.25-1.37h-.08a1.62,1.62,0,0,1-1.44.81,2.14,2.14,0,0,1-1.67-1h-.08a3.39,3.39,0,0,1-2.5,1.15,3.1,3.1,0,0,1-3.2-3.11,3.17,3.17,0,0,1,.22-1.18v-3h.53v2.2a3.16,3.16,0,0,1,2.43-1.1,3.12,3.12,0,0,1,2.83,4.66,1.78,1.78,0,0,0,1.4.8c.69,0,1.26-.39,1.25-1.79v-2c0-2,.64-2.92,2-2.93s3.05,1.63,3.05,4.18C1330.16,322.56,1329.14,324,1327.62,324Zm-8-6a2.51,2.51,0,1,0,0,5,2.52,2.52,0,1,0,0-5Zm7.56-1.27c-1.06,0-1.48.77-1.47,2.21V321a6.64,6.64,0,0,1-.15,1.1,2.54,2.54,0,0,0,2.06,1.29c1.21,0,2.05-1.15,2-3.16C1329.62,318,1328.36,316.68,1327.14,316.68Z"/><path d="M1321.17,315.06c-3,0-4.79-1.89-4.79-3.9s1.47-3.42,4.17-3.43a3.34,3.34,0,0,1,.61,0v6.68c2.43,0,4.22-1.41,4.21-3.58a4.06,4.06,0,0,0-.84-2.5l.49-.27a4.79,4.79,0,0,1,.88,2.81C1325.92,313.19,1324.14,315.05,1321.17,315.06Zm-.54-6.76c-2.51,0-3.72,1.15-3.72,2.86s1.41,3.11,3.73,3.29Z"/><path d="M1316.59,305.19v-.49l1.71-.08v0a3.2,3.2,0,0,1-2-2.58,1.83,1.83,0,0,1,.19-.87l.54.15a1.64,1.64,0,0,0-.15.8c0,.83.65,1.82,2.43,2.54l6.31,0v.57Z"/><path class="cls-10" d="M1257.45,351.28,1246,359a23,23,0,0,0-7,1.52,1.94,1.94,0,0,0-1.25,1.82v2.05h-6a2,2,0,0,0-2,2v2.52c-.21.08-.43.17-.64.27l-1.79-1.78a1.94,1.94,0,0,0-2.75,0l-5.5,5.53a1.94,1.94,0,0,0,0,2.75l1.79,1.79c-.09.21-.18.42-.26.63h-2.52a2,2,0,0,0-2,1.95l0,7.8a1.94,1.94,0,0,0,2,1.94h2.53q.12.31.27.63l-1.79,1.79a2,2,0,0,0,0,2.76l5.53,5.5a1.93,1.93,0,0,0,2.75,0l1.78-1.79.64.27v2.52a1.93,1.93,0,0,0,2,1.94h6V405a2,2,0,0,0,1.26,1.82,23.42,23.42,0,0,0,30.39-14.12l11.33,0a2,2,0,0,0,2-2l-.06-22.22a1.94,1.94,0,0,0-2-1.94l-10,0,0-5.71a2,2,0,0,0-2-1.95l-8.32,0v-6a2,2,0,0,0-3-1.61Zm-23.62,48.16v-2a2,2,0,0,0-1.42-1.87,12.22,12.22,0,0,1-2.57-1.06,1.94,1.94,0,0,0-2.32.33l-1.39,1.4-2.77-2.75,1.39-1.4a1.92,1.92,0,0,0,.32-2.32,12.81,12.81,0,0,1-1.07-2.57,1.93,1.93,0,0,0-1.87-1.4h-2v-3.9h2a2,2,0,0,0,1.87-1.42,12.22,12.22,0,0,1,1.06-2.57,2,2,0,0,0-.33-2.32l-1.4-1.39,2.75-2.77,1.4,1.4a2,2,0,0,0,2.32.32,11.47,11.47,0,0,1,2.56-1.07,2,2,0,0,0,1.41-1.88v-2h4l0,8.07a7.8,7.8,0,1,0,0,15l0,8.08Zm4-12.3a3.9,3.9,0,1,1,0-6.6Zm18.78-26.3a2,2,0,0,0,2,2l8.32,0v5.71a2,2,0,0,0,2,1.95l10,0,0,18.32-10.81,0a2,2,0,0,0-1.87,1.42,19.55,19.55,0,0,1-24.44,13.39l-.1-39.88a19.22,19.22,0,0,1,5.06-.85c1,0,.62-.18,9.87-6.28Z"/><image width="512" height="513" transform="translate(1570.07 182.59) rotate(-90.62) scale(0.13)" xlink:href="../../../../../../hand.png"/><path d="M1647.44,226.28l-.07-6.69h.53l.06,6.08,5.29-.06-.06-5.13h.53l.06,5.13,6.19-.06v.6Z"/><path d="M1657.67,218.57c-2,0-3-1.83-3.5-5.93-1.48,0-3.11.38-3.09,2.28a5,5,0,0,0,1.13,3l-.45.31a5.86,5.86,0,0,1-1.22-3.3c0-2.12,1.57-2.79,3.39-2.81l5.89-.06v.49l-1.22.09v0a5.52,5.52,0,0,1,1.48,3.29A2.34,2.34,0,0,1,1657.67,218.57Zm.3-6-3.31,0c.5,4,1.43,5.34,3,5.32a1.82,1.82,0,0,0,1.91-2.07A5.14,5.14,0,0,0,1658,212.6Z"/><path d="M1647.75,209.1a.62.62,0,0,1-.66-.64.62.62,0,0,1,.64-.65.63.63,0,0,1,.65.64A.63.63,0,0,1,1647.75,209.1Zm3-.37v-.57l9.08-.1v.57Z"/><path d="M1650.66,204.51V204l1.71-.09v0a3.14,3.14,0,0,1-2-2.56,1.76,1.76,0,0,1,.18-.88l.53.15a1.78,1.78,0,0,0-.14.8c0,.84.66,1.82,2.46,2.52l6.3-.07v.57Z"/><path d="M1650.55,194.89v-.49l1.18-.09v0a5.32,5.32,0,0,1-1.44-3.13c0-2.47,1.78-3.67,4.59-3.7,3.08,0,4.92,1.81,4.95,4a5,5,0,0,1-1.11,2.83l1.71,0,3.42,0v.57Zm4.34-6.84c-2.32,0-4.1.88-4.07,3.12a5.14,5.14,0,0,0,1.63,3.13l5.62-.06a4.71,4.71,0,0,0,1.22-2.86C1659.27,189.41,1657.43,188,1654.89,188.05Z"/><path d="M1650.44,184.63v-.49l1.71-.09v0a3.17,3.17,0,0,1-2-2.56,1.86,1.86,0,0,1,.18-.88l.53.15a1.9,1.9,0,0,0-.14.8c0,.83.67,1.81,2.46,2.52l6.31-.07v.57Z"/><path d="M1647.42,179.2a.65.65,0,0,1,0-1.3.65.65,0,0,1,.65.64A.65.65,0,0,1,1647.42,179.2Zm3-.38v-.57l9.08-.1v.57Z"/><path d="M1658.4,175.7l-.46-.38a4.27,4.27,0,0,0,1.15-3c0-1.52-.94-2.3-2-2.29-1.21,0-1.73,1.23-2.1,2.3-.48,1.41-1,3-2.55,3-1.25,0-2.37-1-2.39-2.82A4.11,4.11,0,0,1,1651,170l.46.34a3.46,3.46,0,0,0-.81,2.21c0,1.52.91,2.19,1.8,2.18,1.11,0,1.51-1.11,1.92-2.22.53-1.45,1-3,2.74-3.07,1.33,0,2.52,1,2.54,2.94A5.12,5.12,0,0,1,1658.4,175.7Z"/><path d="M1656.89,162.94l-6.15.07v1.44h-.45l-.09-1.45-2.66,0v-.5l2.66,0,0-2.69h.53l0,2.7,6.23-.07c1.18,0,2-.29,2-1.62a3.2,3.2,0,0,0-.32-1.17l.49-.2a5,5,0,0,1,.36,1.41C1659.51,162.46,1658.45,162.92,1656.89,162.94Z"/><path d="M1647.19,157.84a.65.65,0,1,1,0-1.29.66.66,0,0,1,.66.64A.64.64,0,0,1,1647.19,157.84Zm3-.37v-.57l9.08-.1v.57Z"/><path d="M1658.19,153.16l-12.72.14v-.57l12.84-.14c.38,0,.57-.16.57-.38a1.43,1.43,0,0,0,0-.35l.49-.12a1.69,1.69,0,0,1,.08.5C1659.41,152.81,1659.07,153.15,1658.19,153.16Z"/><path d="M1654.58,145.83c-2.93,0-4.81-1.81-4.83-4a4.38,4.38,0,0,1,1.11-2.83l-1.71.06-3.84,0v-.57l13.72-.15v.5l-1.22.09v0a4.39,4.39,0,0,1,1.48,3C1659.31,144.3,1657.66,145.8,1654.58,145.83Zm2.55-6.87-5.63.06a4.06,4.06,0,0,0-1.22,2.83c0,1.94,1.94,3.4,4.29,3.37,2.51,0,4.21-1.18,4.19-3.23A4.46,4.46,0,0,0,1657.13,139Z"/><path d="M1646.94,135.2a.65.65,0,1,1,0-1.29.63.63,0,0,1,.65.63A.65.65,0,0,1,1646.94,135.2Zm3-.38v-.57l9.08-.1v.57Z"/><path d="M1656.54,130.34l-6.16.07,0,1.44h-.46l-.09-1.45-2.66,0v-.5l2.66,0,0-2.69h.53l0,2.7,6.23-.07c1.18,0,2-.29,2-1.62a3.66,3.66,0,0,0-.32-1.17l.49-.2a5.37,5.37,0,0,1,.36,1.41C1659.16,129.86,1658.1,130.32,1656.54,130.34Z"/><path d="M1657.91,120.37v0l.92.07V121l-13.71.15v-.57l4.06,0,1.83,0a5.35,5.35,0,0,1-1.52-3.21c0-2.47,1.78-3.67,4.6-3.7,3.07,0,4.92,1.81,4.94,4A4.79,4.79,0,0,1,1657.91,120.37Zm-3.83-6.15c-2.31,0-4.09.88-4.07,3.12a5.09,5.09,0,0,0,1.63,3.14l5.63-.06a4.64,4.64,0,0,0,1.22-2.87C1658.47,115.58,1656.63,114.19,1654.08,114.22Z"/><path d="M1654.21,111.6c-3,0-4.81-1.85-4.83-3.87s1.44-3.43,4.14-3.46a4.43,4.43,0,0,1,.61,0l.07,6.69c2.43,0,4.2-1.45,4.18-3.62a4.14,4.14,0,0,0-.86-2.5l.49-.27a4.85,4.85,0,0,1,.9,2.8C1658.94,109.68,1657.17,111.56,1654.21,111.6Zm-.61-6.76c-2.51,0-3.71,1.18-3.69,2.89s1.44,3.1,3.76,3.26Z"/><path d="M1644.9,101.82v-.57l4.06,0,2.06,0a4.56,4.56,0,0,1-1.75-3.17c0-1.87,1.07-2.75,3.43-2.78l5.85-.06v.57l-5.78.06c-2,0-3,.68-3,2.24,0,1.14.63,2,1.86,3.13l6.95-.07v.57Z"/><path d="M1654,92.6c-3,0-4.81-1.81-4.83-4s1.7-4,4.74-4.08,4.77,1.81,4.79,4S1657,92.56,1654,92.6Zm-.08-7.45c-2.51,0-4.24,1.53-4.22,3.47S1651.49,92,1654,92s4.2-1.53,4.18-3.47S1656.43,85.12,1653.92,85.15Z"/><path d="M1649.34,83.34v-.65l5.87-2.23c.87-.31,1.78-.67,2.57-1v-.07c-.8-.3-1.72-.63-2.59-.92l-5.92-2.11v-.6l9.11,3.32v.68Z"/></svg>